<svg width="206" height="80" viewBox="0 0 206 80" fill="none" xmlns="http://www.w3.org/2000/svg">
<path d="M8.99609 13H6.93848V4.70801H2.95312V13H0.902344V3.04688H8.99609V13ZM13.2716 9.49316V13H11.2208V3.04688H15.1036C15.851 3.04688 16.5072 3.18359 17.0723 3.45703C17.642 3.73047 18.0795 4.12012 18.3848 4.62598C18.6902 5.12728 18.8429 5.69922 18.8429 6.3418C18.8429 7.31706 18.5079 8.08724 17.838 8.65234C17.1726 9.21289 16.2498 9.49316 15.0694 9.49316H13.2716ZM13.2716 7.83203H15.1036C15.6459 7.83203 16.0583 7.70443 16.3409 7.44922C16.628 7.19401 16.7716 6.82943 16.7716 6.35547C16.7716 5.86784 16.628 5.47363 16.3409 5.17285C16.0538 4.87207 15.6573 4.71712 15.1514 4.70801H13.2716V7.83203ZM26.6457 3.04688H28.7033V13H26.6457V6.38965L22.6603 13H20.6095V3.04688H22.6603V9.6709L26.6457 3.04688ZM38.7141 9.68457C38.6366 10.7555 38.2401 11.5986 37.5246 12.2139C36.8137 12.8291 35.8749 13.1367 34.7082 13.1367C33.4322 13.1367 32.4273 12.7083 31.6936 11.8516C30.9644 10.9902 30.5998 9.8099 30.5998 8.31055V7.70215C30.5998 6.74512 30.7685 5.90202 31.1057 5.17285C31.4429 4.44368 31.9237 3.88542 32.5481 3.49805C33.177 3.10612 33.9062 2.91016 34.7356 2.91016C35.884 2.91016 36.8092 3.21777 37.511 3.83301C38.2128 4.44824 38.6184 5.31185 38.7278 6.42383H36.677C36.6269 5.78125 36.4468 5.31641 36.137 5.0293C35.8316 4.73763 35.3645 4.5918 34.7356 4.5918C34.052 4.5918 33.5393 4.83789 33.1975 5.33008C32.8603 5.81771 32.6871 6.5765 32.678 7.60645V8.3584C32.678 9.43392 32.8398 10.2201 33.1633 10.7168C33.4914 11.2135 34.0064 11.4619 34.7082 11.4619C35.3417 11.4619 35.8134 11.3184 36.1233 11.0312C36.4377 10.7396 36.6177 10.2907 36.6633 9.68457H38.7141ZM48.6566 8.24902C48.6566 9.22884 48.4834 10.0879 48.137 10.8262C47.7907 11.5645 47.2939 12.1341 46.6468 12.5352C46.0042 12.9362 45.2659 13.1367 44.432 13.1367C43.6071 13.1367 42.8711 12.9385 42.2239 12.542C41.5768 12.1455 41.0755 11.5804 40.72 10.8467C40.3646 10.1084 40.1846 9.26074 40.18 8.30371V7.81152C40.18 6.83171 40.3555 5.97038 40.7064 5.22754C41.0618 4.48014 41.5609 3.9082 42.2034 3.51172C42.8506 3.11068 43.5889 2.91016 44.4183 2.91016C45.2477 2.91016 45.9837 3.11068 46.6263 3.51172C47.2734 3.9082 47.7724 4.48014 48.1234 5.22754C48.4788 5.97038 48.6566 6.82943 48.6566 7.80469V8.24902ZM46.5784 7.79785C46.5784 6.75423 46.3916 5.96126 46.0179 5.41895C45.6442 4.87663 45.111 4.60547 44.4183 4.60547C43.7301 4.60547 43.1992 4.87435 42.8255 5.41211C42.4518 5.94531 42.2627 6.72917 42.2581 7.76367V8.24902C42.2581 9.2653 42.445 10.0537 42.8187 10.6143C43.1924 11.1748 43.7301 11.4551 44.432 11.4551C45.1201 11.4551 45.6488 11.1862 46.0179 10.6484C46.387 10.1061 46.5739 9.31771 46.5784 8.2832V7.79785ZM56.5551 8.68652H52.6176V11.3525H57.2387V13H50.5668V3.04688H57.225V4.70801H52.6176V7.08008H56.5551V8.68652ZM68.0903 15.4473H66.1968V13H60.1948V15.4404H58.2534L58.144 11.3525H58.896C59.3016 11.0153 59.6138 10.5208 59.8325 9.86914C60.0558 9.21289 60.2062 8.40169 60.2837 7.43555L60.5708 3.04688H67.0923V11.3525H68.2544L68.0903 15.4473ZM61.2475 11.3525H65.0415V4.70801H62.519L62.3481 7.32617C62.2114 9.08073 61.8445 10.4229 61.2475 11.3525ZM75.7222 3.04688H77.7798V13H75.7222V6.38965L71.7369 13H69.6861V3.04688H71.7369V9.6709L75.7222 3.04688ZM88.0778 13H86.027V8.73438H82.028V13H79.9772V3.04688H82.028V7.08008H86.027V3.04688H88.0778V13ZM94.8962 13V9.41113H93.2282L91.4304 13H89.2155L91.3415 8.75488C90.3161 8.18978 89.8034 7.3125 89.8034 6.12305C89.8034 5.14779 90.1224 4.39355 90.7605 3.86035C91.3985 3.32715 92.2894 3.05599 93.4333 3.04688H96.9538V13H94.8962ZM91.8542 6.27344C91.8542 6.82943 91.9887 7.23275 92.2575 7.4834C92.531 7.73405 92.9389 7.85938 93.4812 7.85938H94.8962V4.70801H93.4812C92.3965 4.70801 91.8542 5.22982 91.8542 6.27344ZM105.037 3.04688H107.095V13H105.037V6.38965L101.052 13H99.0008V3.04688H101.052V9.6709L105.037 3.04688ZM105.433 0.428711C105.433 1.03483 105.215 1.52474 104.777 1.89844C104.344 2.27214 103.775 2.45898 103.068 2.45898C102.362 2.45898 101.79 2.27441 101.352 1.90527C100.919 1.53613 100.703 1.04395 100.703 0.428711H102.104C102.104 0.71582 102.189 0.939128 102.357 1.09863C102.53 1.25358 102.767 1.33105 103.068 1.33105C103.364 1.33105 103.597 1.25358 103.765 1.09863C103.934 0.939128 104.018 0.71582 104.018 0.428711H105.433ZM116.784 4.70801H113.735V13H111.684V4.70801H108.677V3.04688H116.784V4.70801ZM124.368 8.68652H120.431V11.3525H125.052V13H118.38V3.04688H125.038V4.70801H120.431V7.08008H124.368V8.68652ZM134.488 9.68457C134.411 10.7555 134.014 11.5986 133.299 12.2139C132.588 12.8291 131.649 13.1367 130.482 13.1367C129.206 13.1367 128.202 12.7083 127.468 11.8516C126.739 10.9902 126.374 9.8099 126.374 8.31055V7.70215C126.374 6.74512 126.543 5.90202 126.88 5.17285C127.217 4.44368 127.698 3.88542 128.322 3.49805C128.951 3.10612 129.68 2.91016 130.51 2.91016C131.658 2.91016 132.583 3.21777 133.285 3.83301C133.987 4.44824 134.393 5.31185 134.502 6.42383H132.451C132.401 5.78125 132.221 5.31641 131.911 5.0293C131.606 4.73763 131.139 4.5918 130.51 4.5918C129.826 4.5918 129.314 4.83789 128.972 5.33008C128.634 5.81771 128.461 6.5765 128.452 7.60645V8.3584C128.452 9.43392 128.614 10.2201 128.938 10.7168C129.266 11.2135 129.781 11.4619 130.482 11.4619C131.116 11.4619 131.588 11.3184 131.897 11.0312C132.212 10.7396 132.392 10.2907 132.438 9.68457H134.488ZM138.306 6.63574H139.905C141.077 6.63574 142.004 6.92057 142.688 7.49023C143.376 8.05534 143.72 8.81868 143.72 9.78027C143.72 10.7464 143.378 11.5234 142.694 12.1113C142.015 12.6947 141.111 12.9909 139.981 13H136.241V3.04688H138.306V6.63574ZM138.306 8.29004V11.3525H139.94C140.464 11.3525 140.881 11.209 141.191 10.9219C141.505 10.6348 141.662 10.2497 141.662 9.7666C141.662 9.31543 141.512 8.95996 141.211 8.7002C140.915 8.43587 140.507 8.29915 139.987 8.29004H138.306Z" fill="white"/>
<path d="M206 58C206 64.0751 203.538 69.5751 199.556 73.5564C195.575 77.5376 190.075 80 184 80C177.925 80 172.425 77.5376 168.444 73.5564C164.462 69.5751 162 64.0751 162 58C162 51.9249 164.462 46.4249 168.444 42.4437C172.425 38.4624 177.925 36 184 36C190.075 36 195.575 38.4624 199.556 42.4437C203.538 46.4249 206 51.9249 206 58Z" fill="white" fill-opacity="0.1"/>
<g clip-path="url(#clip0_1_655)">
<path d="M193.995 68.0001V67.9993H194V60.6643C194 57.0759 193.228 54.3118 189.032 54.3118C187.016 54.3118 185.662 55.4184 185.11 56.4676H185.052V54.6468H181.074V67.9993H185.216V61.3876C185.216 59.6468 185.546 57.9634 187.702 57.9634C189.826 57.9634 189.857 59.9501 189.857 61.4993V68.0001H193.995Z" fill="white"/>
<path d="M174.33 54.6475H178.477V68H174.33V54.6475Z" fill="white"/>
<path d="M176.402 48C175.076 48 174 49.0758 174 50.4017C174 51.7275 175.076 52.8258 176.402 52.8258C177.727 52.8258 178.803 51.7275 178.803 50.4017C178.802 49.0758 177.727 48 176.402 48V48Z" fill="white"/>
</g>
<path d="M152 58C152 64.0751 149.538 69.5751 145.556 73.5564C141.575 77.5376 136.075 80 130 80C123.925 80 118.425 77.5376 114.444 73.5564C110.462 69.5751 108 64.0751 108 58C108 51.9249 110.462 46.4249 114.444 42.4437C118.425 38.4624 123.925 36 130 36C136.075 36 141.575 38.4624 145.556 42.4437C149.538 46.4249 152 51.9249 152 58Z" fill="white" fill-opacity="0.1"/>
<g clip-path="url(#clip1_1_655)">
<path d="M133.331 51.3208H135.157V48.1408C134.842 48.0975 133.758 48 132.497 48C129.864 48 128.061 49.6558 128.061 52.6992V55.5H125.156V59.055H128.061V68H131.623V59.0558H134.41L134.853 55.5008H131.622V53.0517C131.623 52.0242 131.899 51.3208 133.331 51.3208Z" fill="white"/>
</g>
<path d="M98 58C98 64.0751 95.5376 69.5751 91.5564 73.5564C87.5751 77.5376 82.0751 80 76 80C69.9249 80 64.4249 77.5376 60.4437 73.5564C56.4624 69.5751 54 64.0751 54 58C54 51.9249 56.4624 46.4249 60.4437 42.4437C64.4249 38.4624 69.9249 36 76 36C82.0751 36 87.5751 38.4624 91.5564 42.4437C95.5376 46.4249 98 51.9249 98 58Z" fill="#2196F3"/>
<g clip-path="url(#clip2_1_655)">
<path d="M86 51.7988C85.2563 52.125 84.4637 52.3412 83.6375 52.4462C84.4875 51.9388 85.1363 51.1412 85.4412 50.18C84.6488 50.6525 83.7738 50.9863 82.8412 51.1725C82.0887 50.3713 81.0162 49.875 79.8462 49.875C77.5763 49.875 75.7487 51.7175 75.7487 53.9763C75.7487 54.3012 75.7762 54.6137 75.8438 54.9112C72.435 54.745 69.4188 53.1113 67.3925 50.6225C67.0387 51.2363 66.8313 51.9388 66.8313 52.695C66.8313 54.115 67.5625 55.3737 68.6525 56.1025C67.9937 56.09 67.3475 55.8988 66.8 55.5975C66.8 55.61 66.8 55.6262 66.8 55.6425C66.8 57.635 68.2212 59.29 70.085 59.6712C69.7512 59.7625 69.3875 59.8062 69.01 59.8062C68.7475 59.8062 68.4825 59.7913 68.2337 59.7362C68.765 61.36 70.2725 62.5538 72.065 62.5925C70.67 63.6838 68.8988 64.3412 66.9813 64.3412C66.645 64.3412 66.3225 64.3263 66 64.285C67.8162 65.4563 69.9688 66.125 72.29 66.125C79.835 66.125 83.96 59.875 83.96 54.4575C83.96 54.2762 83.9538 54.1013 83.945 53.9275C84.7588 53.35 85.4425 52.6288 86 51.7988Z" fill="white"/>
</g>
<path d="M44 58C44 64.0751 41.5376 69.5751 37.5564 73.5564C33.5751 77.5376 28.0751 80 22 80C15.9249 80 10.4249 77.5376 6.44365 73.5564C2.46243 69.5751 0 64.0751 0 58C0 51.9249 2.46243 46.4249 6.44365 42.4437C10.4249 38.4624 15.9249 36 22 36C28.0751 36 33.5751 38.4624 37.5564 42.4437C41.5376 46.4249 44 51.9249 44 58Z" fill="white" fill-opacity="0.1"/>
<g clip-path="url(#clip3_1_655)">
<path d="M31.9804 53.8801C31.9336 52.8174 31.7617 52.0868 31.5156 51.4537C31.2616 50.7818 30.8709 50.1801 30.359 49.68C29.8589 49.1721 29.2533 48.7774 28.5891 48.5274C27.9524 48.2813 27.2256 48.1094 26.163 48.0626C25.0924 48.0118 24.7525 48 22.0371 48C19.3217 48 18.9818 48.0118 17.9152 48.0586C16.8525 48.1055 16.1219 48.2775 15.489 48.5235C14.8169 48.7774 14.2153 49.1681 13.7152 49.68C13.2073 50.1801 12.8127 50.7857 12.5626 51.4499C12.3164 52.0868 12.1446 52.8134 12.0977 53.8761C12.0469 54.9467 12.0352 55.2866 12.0352 58.002C12.0352 60.7173 12.0469 61.0572 12.0938 62.1239C12.1406 63.1865 12.3126 63.9171 12.5588 64.5502C12.8127 65.2221 13.2073 65.8238 13.7152 66.3239C14.2153 66.8318 14.8209 67.2265 15.4851 67.4765C16.1219 67.7226 16.8486 67.8945 17.9114 67.9413C18.9779 67.9883 19.3179 67.9999 22.0333 67.9999C24.7487 67.9999 25.0885 67.9883 26.1552 67.9413C27.2179 67.8945 27.9484 67.7226 28.5813 67.4765C29.9254 66.9568 30.9881 65.8941 31.5078 64.5502C31.7538 63.9133 31.9258 63.1865 31.9727 62.1239C32.0195 61.0572 32.0313 60.7173 32.0313 58.002C32.0313 55.2866 32.0273 54.9467 31.9804 53.8801ZM30.1794 62.0457C30.1364 63.0225 29.9723 63.5499 29.8356 63.9015C29.4995 64.7728 28.808 65.4643 27.9367 65.8004C27.5851 65.9372 27.0538 66.1012 26.0809 66.1441C25.026 66.1911 24.7096 66.2027 22.0411 66.2027C19.3726 66.2027 19.0522 66.1911 18.0011 66.1441C17.0244 66.1012 16.4969 65.9372 16.1453 65.8004C15.7117 65.6402 15.317 65.3862 14.9967 65.0541C14.6646 64.7298 14.4106 64.3391 14.2504 63.9055C14.1137 63.5539 13.9496 63.0225 13.9067 62.0497C13.8597 60.9948 13.8481 60.6783 13.8481 58.0097C13.8481 55.3412 13.8597 55.0209 13.9067 53.9699C13.9496 52.9932 14.1137 52.4657 14.2504 52.1141C14.4106 51.6804 14.6646 51.2859 15.0007 50.9654C15.3248 50.6333 15.7155 50.3793 16.1493 50.2192C16.5009 50.0825 17.0323 49.9184 18.0051 49.8754C19.06 49.8285 19.3765 49.8168 22.0449 49.8168C24.7174 49.8168 25.0337 49.8285 26.0848 49.8754C27.0616 49.9184 27.589 50.0825 27.9407 50.2192C28.3742 50.3793 28.7689 50.6333 29.0893 50.9654C29.4213 51.2897 29.6753 51.6804 29.8356 52.1141C29.9723 52.4657 30.1364 52.997 30.1794 53.9699C30.2263 55.0248 30.238 55.3412 30.238 58.0097C30.238 60.6783 30.2263 60.9908 30.1794 62.0457Z" fill="white"/>
<path d="M22.0371 52.8641C19.2007 52.8641 16.8994 55.1653 16.8994 58.0019C16.8994 60.8384 19.2007 63.1396 22.0371 63.1396C24.8737 63.1396 27.1749 60.8384 27.1749 58.0019C27.1749 55.1653 24.8737 52.8641 22.0371 52.8641ZM22.0371 61.3346C20.197 61.3346 18.7044 59.8421 18.7044 58.0019C18.7044 56.1616 20.197 54.6691 22.0371 54.6691C23.8774 54.6691 25.3698 56.1616 25.3698 58.0019C25.3698 59.8421 23.8774 61.3346 22.0371 61.3346Z" fill="white"/>
<path d="M28.5775 52.6611C28.5775 53.3235 28.0404 53.8605 27.3779 53.8605C26.7155 53.8605 26.1785 53.3235 26.1785 52.6611C26.1785 51.9986 26.7155 51.4617 27.3779 51.4617C28.0404 51.4617 28.5775 51.9986 28.5775 52.6611Z" fill="white"/>
</g>
<defs>
<clipPath id="clip0_1_655">
<rect width="20" height="20" fill="white" transform="translate(174 48)"/>
</clipPath>
<clipPath id="clip1_1_655">
<rect width="20" height="20" fill="white" transform="translate(120 48)"/>
</clipPath>
<clipPath id="clip2_1_655">
<rect width="20" height="20" fill="white" transform="translate(66 48)"/>
</clipPath>
<clipPath id="clip3_1_655">
<rect width="20" height="20" fill="white" transform="translate(12 48)"/>
</clipPath>
</defs>
</svg>
